<mxfile host="app.diagrams.net" modified="2021-09-13T02:31:10.477Z" agent="5.0 (Windows NT 10.0; Win64; x64) AppleWebKit/537.36 (KHTML, like Gecko) Chrome/93.0.4577.63 Safari/537.36 Edg/93.0.961.44" etag="BcmYZlbf_ijL9quee9Em" version="14.7.3" type="github">
  <diagram id="uGpA1uYHH4qxCrbYpDov" name="Page-1">
    <mxGraphModel dx="771" dy="433" grid="1" gridSize="10" guides="1" tooltips="1" connect="1" arrows="1" fold="1" page="1" pageScale="1" pageWidth="827" pageHeight="1169" math="1" shadow="0">
      <root>
        <mxCell id="0" />
        <mxCell id="1" parent="0" />
        <mxCell id="vSakK3tmNp2pYFskTQvB-1" value="" style="rounded=0;whiteSpace=wrap;html=1;fontColor=#F08E81;fillColor=none;strokeColor=none;" vertex="1" parent="1">
          <mxGeometry x="220" y="740" width="340" height="160" as="geometry" />
        </mxCell>
        <mxCell id="vSakK3tmNp2pYFskTQvB-2" value="" style="endArrow=block;html=1;strokeColor=#1699D3;endFill=1;" edge="1" parent="1">
          <mxGeometry x="634" y="1320" width="50" height="50" as="geometry">
            <mxPoint x="314" y="400" as="sourcePoint" />
            <mxPoint x="314" y="340" as="targetPoint" />
          </mxGeometry>
        </mxCell>
        <mxCell id="vSakK3tmNp2pYFskTQvB-3" value="" style="endArrow=block;html=1;strokeColor=#1699D3;endFill=1;" edge="1" parent="1">
          <mxGeometry x="634" y="1320" width="50" height="50" as="geometry">
            <mxPoint x="314" y="400" as="sourcePoint" />
            <mxPoint x="374" y="400" as="targetPoint" />
          </mxGeometry>
        </mxCell>
        <mxCell id="vSakK3tmNp2pYFskTQvB-4" value="" style="endArrow=block;html=1;strokeColor=#1699D3;endFill=1;" edge="1" parent="1">
          <mxGeometry x="634" y="1320" width="50" height="50" as="geometry">
            <mxPoint x="314" y="400" as="sourcePoint" />
            <mxPoint x="284" y="440" as="targetPoint" />
          </mxGeometry>
        </mxCell>
        <mxCell id="vSakK3tmNp2pYFskTQvB-5" value="$$x_A$$" style="text;html=1;strokeColor=none;fillColor=none;align=center;verticalAlign=middle;whiteSpace=wrap;rounded=0;fontColor=#1699D3;" vertex="1" parent="1">
          <mxGeometry x="274" y="440" width="20" height="20" as="geometry" />
        </mxCell>
        <mxCell id="vSakK3tmNp2pYFskTQvB-6" value="$$y_A$$" style="text;html=1;strokeColor=none;fillColor=none;align=center;verticalAlign=middle;whiteSpace=wrap;rounded=0;fontColor=#1699D3;" vertex="1" parent="1">
          <mxGeometry x="374" y="390" width="20" height="20" as="geometry" />
        </mxCell>
        <mxCell id="vSakK3tmNp2pYFskTQvB-7" value="$$z_A$$" style="text;html=1;strokeColor=none;fillColor=none;align=center;verticalAlign=middle;whiteSpace=wrap;rounded=0;fontColor=#1699D3;" vertex="1" parent="1">
          <mxGeometry x="304" y="320" width="20" height="20" as="geometry" />
        </mxCell>
        <mxCell id="vSakK3tmNp2pYFskTQvB-8" value="" style="endArrow=block;html=1;endFill=1;strokeColor=#EA6B66;" edge="1" parent="1">
          <mxGeometry x="634" y="1320" width="50" height="50" as="geometry">
            <mxPoint x="314" y="400" as="sourcePoint" />
            <mxPoint x="291.5" y="430" as="targetPoint" />
          </mxGeometry>
        </mxCell>
        <mxCell id="vSakK3tmNp2pYFskTQvB-9" value="" style="endArrow=block;html=1;endFill=1;strokeColor=#F08E81;" edge="1" parent="1">
          <mxGeometry x="276" y="329" width="50" height="50" as="geometry">
            <mxPoint x="314" y="400" as="sourcePoint" />
            <mxPoint x="340" y="430" as="targetPoint" />
          </mxGeometry>
        </mxCell>
        <mxCell id="vSakK3tmNp2pYFskTQvB-10" value="$$p$$" style="text;html=1;strokeColor=none;fillColor=none;align=center;verticalAlign=middle;whiteSpace=wrap;rounded=0;fontColor=#EA6B66;" vertex="1" parent="1">
          <mxGeometry x="274" y="410" width="16" height="20" as="geometry" />
        </mxCell>
        <mxCell id="vSakK3tmNp2pYFskTQvB-11" value="$$q$$" style="text;html=1;strokeColor=none;fillColor=none;align=center;verticalAlign=middle;whiteSpace=wrap;rounded=0;fontColor=#F08E81;" vertex="1" parent="1">
          <mxGeometry x="340" y="420" width="20" height="20" as="geometry" />
        </mxCell>
        <mxCell id="vSakK3tmNp2pYFskTQvB-22" value="" style="endArrow=block;html=1;strokeColor=#1699D3;endFill=1;" edge="1" parent="1">
          <mxGeometry x="760" y="1320" width="50" height="50" as="geometry">
            <mxPoint x="440" y="400" as="sourcePoint" />
            <mxPoint x="440" y="340" as="targetPoint" />
          </mxGeometry>
        </mxCell>
        <mxCell id="vSakK3tmNp2pYFskTQvB-23" value="" style="endArrow=block;html=1;strokeColor=#1699D3;endFill=1;" edge="1" parent="1">
          <mxGeometry x="760" y="1320" width="50" height="50" as="geometry">
            <mxPoint x="440" y="400" as="sourcePoint" />
            <mxPoint x="500" y="370" as="targetPoint" />
          </mxGeometry>
        </mxCell>
        <mxCell id="vSakK3tmNp2pYFskTQvB-25" value="$$x_B$$" style="text;html=1;strokeColor=none;fillColor=none;align=center;verticalAlign=middle;whiteSpace=wrap;rounded=0;fontColor=#1699D3;" vertex="1" parent="1">
          <mxGeometry x="470" y="440" width="20" height="20" as="geometry" />
        </mxCell>
        <mxCell id="vSakK3tmNp2pYFskTQvB-27" value="$$z_B$$" style="text;html=1;strokeColor=none;fillColor=none;align=center;verticalAlign=middle;whiteSpace=wrap;rounded=0;fontColor=#1699D3;" vertex="1" parent="1">
          <mxGeometry x="430" y="320" width="20" height="20" as="geometry" />
        </mxCell>
        <mxCell id="vSakK3tmNp2pYFskTQvB-30" value="$$q$$" style="text;html=1;strokeColor=none;fillColor=none;align=center;verticalAlign=middle;whiteSpace=wrap;rounded=0;fontColor=#F08E81;" vertex="1" parent="1">
          <mxGeometry x="462" y="410" width="20" height="20" as="geometry" />
        </mxCell>
        <mxCell id="vSakK3tmNp2pYFskTQvB-32" value="$$y_B$$" style="text;html=1;strokeColor=none;fillColor=none;align=center;verticalAlign=middle;whiteSpace=wrap;rounded=0;fontColor=#1699D3;" vertex="1" parent="1">
          <mxGeometry x="506" y="362" width="20" height="20" as="geometry" />
        </mxCell>
        <mxCell id="vSakK3tmNp2pYFskTQvB-34" value="" style="endArrow=block;html=1;endFill=1;strokeColor=#2185BA;" edge="1" parent="1">
          <mxGeometry x="402" y="329" width="50" height="50" as="geometry">
            <mxPoint x="440" y="400" as="sourcePoint" />
            <mxPoint x="480" y="440" as="targetPoint" />
          </mxGeometry>
        </mxCell>
        <mxCell id="vSakK3tmNp2pYFskTQvB-28" value="" style="endArrow=block;html=1;endFill=1;strokeColor=#F08E81;" edge="1" parent="1">
          <mxGeometry x="760" y="1320" width="50" height="50" as="geometry">
            <mxPoint x="440" y="400" as="sourcePoint" />
            <mxPoint x="470" y="430" as="targetPoint" />
          </mxGeometry>
        </mxCell>
        <mxCell id="vSakK3tmNp2pYFskTQvB-35" value="" style="endArrow=block;html=1;strokeColor=#1699D3;endFill=1;opacity=30;" edge="1" parent="1">
          <mxGeometry x="760" y="1320" width="50" height="50" as="geometry">
            <mxPoint x="440" y="400" as="sourcePoint" />
            <mxPoint x="500" y="400" as="targetPoint" />
          </mxGeometry>
        </mxCell>
        <mxCell id="vSakK3tmNp2pYFskTQvB-37" value="" style="endArrow=block;html=1;strokeColor=#1699D3;endFill=1;opacity=30;" edge="1" parent="1">
          <mxGeometry x="760" y="1320" width="50" height="50" as="geometry">
            <mxPoint x="440" y="400" as="sourcePoint" />
            <mxPoint x="410" y="440" as="targetPoint" />
          </mxGeometry>
        </mxCell>
        <mxCell id="vSakK3tmNp2pYFskTQvB-38" value="" style="endArrow=none;html=1;fontColor=#F08E81;strokeColor=#F08E81;opacity=30;" edge="1" parent="1">
          <mxGeometry width="50" height="50" relative="1" as="geometry">
            <mxPoint x="433" y="410" as="sourcePoint" />
            <mxPoint x="450" y="410" as="targetPoint" />
            <Array as="points">
              <mxPoint x="440" y="420" />
            </Array>
          </mxGeometry>
        </mxCell>
        <mxCell id="vSakK3tmNp2pYFskTQvB-39" value="&lt;font style=&quot;font-size: 10px&quot;&gt;$$60^{\circ}$$&lt;/font&gt;" style="text;html=1;strokeColor=none;fillColor=none;align=center;verticalAlign=middle;whiteSpace=wrap;rounded=0;fontSize=9;fontColor=#F08E81;textOpacity=30;" vertex="1" parent="1">
          <mxGeometry x="437" y="421" width="10" height="10" as="geometry" />
        </mxCell>
        <mxCell id="vSakK3tmNp2pYFskTQvB-40" value="" style="rounded=0;whiteSpace=wrap;html=1;fontSize=9;opacity=50;fillColor=none;strokeColor=none;" vertex="1" parent="1">
          <mxGeometry x="250" y="310" width="290" height="170" as="geometry" />
        </mxCell>
      </root>
    </mxGraphModel>
  </diagram>
</mxfile>
